# xmcd
#
# Track frame offsets: 
#        183
#        17095
#        64583
#        83308
#        113358
#        144733
#        158583
#        177633
#        204708
#        231258
#        252933
#
# Disc length: 3555 seconds
#
# Revision: 0
# Processed by: cddbd v1.5.2PL0 Copyright (c) Steve Scherf et al.
# Submitted via: ExactAudioCopy v0.99pb3
#
DISCID=880de10b
DTITLE=Sarasota Slim - Deep In The Southern Trenches
DYEAR=1996
DGENRE=Blues
TTITLE0=Walking Blues
TTITLE1=A Nickle And A Nail
TTITLE2=The Things That I Used To Do
TTITLE3=Tin Pan Alley
TTITLE4=Three Hundred Pounds Of Lucy
TTITLE5=Shake Your Money Maker
TTITLE6=Crabs in A Bucket
TTITLE7=Born Under A Bad Sign
TTITLE8=Living In My Suitcase
TTITLE9=Scratch My Back
TTITLE10=Rum And Ike Medley
EXTD=
EXTT0=
EXTT1=
EXTT2=
EXTT3=
EXTT4=
EXTT5=
EXTT6=
EXTT7=
EXTT8=
EXTT9=
EXTT10=
PLAYORDER=
